<svg xmlns="http://www.w3.org/2000/svg" width="430" height="430" style="width:100%;height:100%;transform:translate3d(0,0,0);content-visibility:visible" viewBox="0 0 430 430"><defs><mask id="r" mask-type="alpha"><use xmlns:ns1="http://www.w3.org/1999/xlink" ns1:href="#a"/></mask><mask id="q" mask-type="alpha"><use xmlns:ns2="http://www.w3.org/1999/xlink" ns2:href="#b"/></mask><mask id="p" mask-type="alpha"><use xmlns:ns3="http://www.w3.org/1999/xlink" ns3:href="#c"/></mask><mask id="o" mask-type="alpha"><use xmlns:ns4="http://www.w3.org/1999/xlink" ns4:href="#d"/></mask><mask id="m" mask-type="alpha"><g filter="url(#e)"><path fill="#fff" d="M0 0h430v430H0z" opacity="0"/><use xmlns:ns5="http://www.w3.org/1999/xlink" ns5:href="#f"/></g></mask><mask id="l" mask-type="alpha"><use xmlns:ns6="http://www.w3.org/1999/xlink" ns6:href="#g"/></mask><clipPath id="h"><path d="M0 0h430v430H0z"/></clipPath><clipPath id="n"><path d="M0 0h430v430H0z"/></clipPath><clipPath id="k"><path d="M0 0h430v430H0z"/></clipPath><clipPath id="j"><path d="M0 0h430v430H0z"/></clipPath><clipPath id="i"><path d="M0 0h430v430H0z"/></clipPath><path id="a" style="display:none"/><path id="b" style="display:none"/><path id="c" style="display:none"/><path id="d" style="display:none"/><path id="f" fill="#FFC738" d="M271.883 113.684a55.9 55.9 0 0 1 13.125 36.074c0 30.996-25.133 56.13-56.13 56.13-30.996 0-56.13-25.134-56.13-56.13 0-30.997 25.128-56.13 56.13-56.13 17.263 0 32.706 7.793 43.005 20.056" style="display:block"/><filter id="e" width="100%" height="100%" x="0%" y="0%" filterUnits="objectBoundingBox"><feComponentTransfer in="SourceGraphic"><feFuncA tableValues="1.0 0.0" type="table"/></feComponentTransfer></filter><g id="g" style="display:block"><path fill="red" d="M386.204 217.086c0 93.133-75.5 168.632-168.632 168.632S48.94 310.218 48.94 217.086s75.5-168.632 168.632-168.632 168.632 75.5 168.632 168.632z"/><path fill-opacity="0" stroke="#131432" stroke-linecap="round" stroke-linejoin="round" stroke-width="0" d="M386.204 217.086c0 93.133-75.5 168.632-168.632 168.632S48.94 310.218 48.94 217.086s75.5-168.632 168.632-168.632 168.632 75.5 168.632 168.632z"/></g></defs><g clip-path="url(#h)"><g clip-path="url(#i)" style="display:none"><path class="tertiary" style="display:none"/><path class="secondary" style="display:none"/><path class="secondary" style="mix-blend-mode:multiply;display:none"/><path class="primary" style="display:none"/><path class="primary" style="mix-blend-mode:multiply;display:none"/></g><g clip-path="url(#j)" style="display:none"><path class="tertiary" style="display:none"/><path class="secondary" style="display:none"/><path class="secondary" style="mix-blend-mode:multiply;display:none"/><path class="primary" style="display:none"/><path class="primary" style="mix-blend-mode:multiply;display:none"/></g><g clip-path="url(#k)" style="display:block"><path fill="#EBE6EF" d="M50.04.75c0 27.614-22.386 50-50 50s-50-22.386-50-50 22.386-50 50-50 50 22.386 50 50z" class="tertiary" style="display:block" transform="translate(217.437 214.557) scale(3.37264)"/><g mask="url(#l)" style="display:block"><path fill="#4BB3FD" d="M200.952 400.224H95.019l.482-71.435c0-42.822 34.718-77.54 77.54-77.54h88.67c42.822 0 77.54 34.718 77.54 77.54l-.48 71.435H200.95" class="secondary"/></g><g opacity=".5" style="mix-blend-mode:multiply;display:block"><path fill="#4BB3FD" d="M172.47 251.68h4.21c-42.37 14.74-57.42 60.48-62.27 98.15a170.311 170.311 0 0 1-19.63-17.62l.15-2.99a77.551 77.551 0 0 1 77.54-77.54z" class="secondary" opacity="1"/></g><path fill="#FFC738" d="M260.384 128.186a55.9 55.9 0 0 1 13.125 36.074c0 30.997-25.134 56.13-56.13 56.13-30.996 0-56.13-25.133-56.13-56.13 0-30.996 25.128-56.13 56.13-56.13 17.263 0 32.706 7.794 43.005 20.056" class="primary" style="display:block"/><g fill="#FFC738" mask="url(#m)" style="display:block"><path d="M260.384 128.186a55.9 55.9 0 0 1 13.125 36.074c0 30.997-25.134 56.13-56.13 56.13-30.996 0-56.13-25.133-56.13-56.13 0-30.996 25.128-56.13 56.13-56.13 17.263 0 32.706 7.794 43.005 20.056" class="primary"/><path fill-opacity=".5" d="M15.673-9.749a10.107 10.107 0 0 1 2.373 6.522c0 5.604-4.544 10.148-10.148 10.148S-2.25 2.377-2.25-3.227 2.293-13.375 7.898-13.375c3.121 0 5.913 1.409 7.775 3.626" class="primary" style="mix-blend-mode:multiply" transform="translate(173.694 182.11) scale(5.53113)"/></g></g><g clip-path="url(#n)" style="display:none"><path class="tertiary" style="display:none"/><g mask="url(#o)" style="display:none"><path class="primary"/></g><g mask="url(#p)" style="mix-blend-mode:multiply;display:none"><path class="primary"/></g><g mask="url(#q)" style="display:none"><path class="secondary"/></g><g mask="url(#r)" style="mix-blend-mode:multiply;display:none"><path class="secondary"/></g></g></g></svg>